<?xml version="1.0" encoding="UTF-8" standalone="no"?><!DOCTYPE svg PUBLIC "-//W3C//DTD SVG 1.1//EN" "http://www.w3.org/Graphics/SVG/1.1/DTD/svg11.dtd"><svg width="100%" height="100%" viewBox="0 0 1000 1000" version="1.1" xmlns="http://www.w3.org/2000/svg" xmlns:xlink="http://www.w3.org/1999/xlink" xml:space="preserve" xmlns:serif="http://www.serif.com/" style="fill-rule:evenodd;clip-rule:evenodd;stroke-linejoin:round;stroke-miterlimit:2;"><path id="Capa-1" serif:id="Capa 1" d="M694.307,30.769c0,0 258.174,161.359 225.901,470.63c-32.271,309.27 -301.202,416.842 -301.202,416.842c0,0 -177.494,83.368 -349.61,21.514c0,0 -158.669,-43.029 -188.252,-242.038c-29.582,-199.009 99.505,-276.997 99.505,-276.997c0,0 80.679,-53.786 161.359,-18.825c0,0 19.148,9.574 39.165,24.152c41.012,29.87 93.882,39.022 142.012,22.969c56.219,-18.751 124.281,-62.161 176.501,-160.073c0,0 64.543,-115.64 -5.379,-258.173" style="fill:url(#_Linear1);fill-rule:nonzero;"/><defs><linearGradient id="_Linear1" x1="0" y1="0" x2="1" y2="0" gradientUnits="userSpaceOnUse" gradientTransform="matrix(-279.07,-475.452,475.452,-279.07,766.408,929.199)"><stop offset="0" style="stop-color:#9f0000;stop-opacity:1"/><stop offset="0.45" style="stop-color:#9e1316;stop-opacity:1"/><stop offset="1" style="stop-color:#9d404a;stop-opacity:1"/></linearGradient></defs></svg>